# xmcd
#
# Track frame offsets: 
#        150
#        14559
#        28107
#        45176
#        68226
#        88926
#        95615
#        112670
#        127621
#        143888
#        157408
#        171683
#
# Disc length: 2496 seconds
#
# Revision: 1
# Processed by: cddbd v1.5.2PL0 Copyright (c) Steve Scherf et al.
# Submitted via: ExactAudioCopyFreeDBPlugin 1.0
#
DISCID=a109be0c
DTITLE=Melanie Pain - My Name
DYEAR=2009
DGENRE=Pop
TTITLE0=Peut-Etre Pas
TTITLE1=Ignore-Moi
TTITLE2=Bruises
TTITLE3=Helsinki
TTITLE4=My Name
TTITLE5=Little Cowboy
TTITLE6=La Cigarette
TTITLE7=Celle De Mes Vingt Ans
TTITLE8=L'espace D'un Instant
TTITLE9=Everything I Know
TTITLE10=Sans L'ombre De Toi
TTITLE11=If You Knew
EXTD=
EXTT0=
EXTT1=
EXTT2=
EXTT3=
EXTT4=
EXTT5=
EXTT6=
EXTT7=
EXTT8=
EXTT9=
EXTT10=
EXTT11=
PLAYORDER=
